#N canvas 18 218 329 264 10;
#X obj 162 100 dsp;
#X obj 162 79 tgl 15 0 empty empty empty 17 7 0 10 -262144 -1 -1 1
1;
#X obj 544 592 sendOSC;
#X msg 212 579 connect localhost 12000;
#X msg 67 468 send /direccion \$1;
#X floatatom 406 435 5 0 0 0 - - -;
#X msg 406 460 send /rojo \$1;
#X floatatom 622 438 5 0 0 0 - - -;
#X floatatom 905 441 5 0 0 0 - - -;
#X msg 622 462 send /verde \$1;
#X msg 905 463 send /azul \$1;
#X msg 223 549 disconnect;
#X floatatom 67 443 5 0 0 0 - - -;
#X text 434 3 Do5 97(a) Do# 119(w) Re 115(s) Re# 101(e) Mi 100(d) Fa
102 (f) Fa# 116(t) Sol 103(g) Sol# 121(y) La 104(h) La# 117(u) Si 106(j)
Do6 107(k);
#X obj 185 241 noteout;
#X msg 229 216 1;
#X obj 590 64 key;
#X floatatom 590 85 5 0 0 0 - - -;
#X obj 438 124 select 97 119 115 101 100 102 116 103 121 104 117 106
107;
#X msg 177 215 60;
#X obj 266 219 noteout;
#X msg 283 193 127;
#X msg 310 194 1;
#X obj 348 209 bng 15 250 50 0 empty empty empty 17 7 0 10 -262144
-1 -1;
#X obj 331 256 noteout;
#X msg 348 230 127;
#X msg 375 231 1;
#X obj 420 178 bng 15 250 50 0 empty empty empty 17 7 0 10 -262144
-1 -1;
#X obj 403 225 noteout;
#X msg 420 199 127;
#X msg 447 200 1;
#X obj 486 211 bng 15 250 50 0 empty empty empty 17 7 0 10 -262144
-1 -1;
#X obj 469 258 noteout;
#X msg 486 232 127;
#X msg 513 233 1;
#X obj 570 210 bng 15 250 50 0 empty empty empty 17 7 0 10 -262144
-1 -1;
#X obj 553 257 noteout;
#X msg 570 231 127;
#X msg 597 232 1;
#X obj 645 183 bng 15 250 50 0 empty empty empty 17 7 0 10 -262144
-1 -1;
#X obj 628 230 noteout;
#X msg 645 204 127;
#X msg 672 205 1;
#X obj 710 212 bng 15 250 50 0 empty empty empty 17 7 0 10 -262144
-1 -1;
#X obj 693 259 noteout;
#X msg 710 233 127;
#X msg 737 234 1;
#X obj 785 185 bng 15 250 50 0 empty empty empty 17 7 0 10 -262144
-1 -1;
#X obj 768 232 noteout;
#X msg 785 206 127;
#X msg 812 207 1;
#X obj 847 217 bng 15 250 50 0 empty empty empty 17 7 0 10 -262144
-1 -1;
#X obj 830 264 noteout;
#X msg 847 238 127;
#X msg 874 239 1;
#X obj 922 186 bng 15 250 50 0 empty empty empty 17 7 0 10 -262144
-1 -1;
#X obj 905 233 noteout;
#X msg 922 207 127;
#X msg 949 208 1;
#X obj 989 215 bng 15 250 50 0 empty empty empty 17 7 0 10 -262144
-1 -1;
#X obj 972 262 noteout;
#X msg 989 236 127;
#X msg 1016 237 1;
#X obj 1075 216 bng 15 250 50 0 empty empty empty 17 7 0 10 -262144
-1 -1;
#X obj 1058 263 noteout;
#X msg 1075 237 127;
#X msg 1102 238 1;
#X obj 203 188 bng 15 250 50 0 empty empty empty 17 7 0 10 -262144
-1 -1;
#X obj 281 169 bng 15 250 50 0 empty empty empty 17 7 0 10 -262144
-1 -1;
#X msg 256 194 61;
#X msg 321 231 62;
#X msg 393 200 63;
#X msg 459 233 64;
#X msg 543 232 65;
#X msg 618 205 66;
#X msg 683 234 67;
#X msg 758 207 68;
#X msg 820 239 69;
#X msg 895 208 70;
#X msg 962 237 71;
#X msg 1048 238 72;
#X msg 202 215 127;
#X msg 323 338 0;
#X msg 416 339 400;
#X msg 374 339 200;
#X msg 457 339 600;
#X msg 500 339 100;
#X msg 552 339 0;
#X msg 602 339 200;
#X msg 645 339 400;
#X msg 695 338 600;
#X msg 747 339 100;
#X msg 808 337 0;
#X msg 862 337 200;
#X msg 925 337 400;
#X msg 990 338 600;
#X msg 92 339 0;
#X msg 148 323 0;
#X msg 33 319 0;
#X msg 49 338 -200;
#X msg 125 340 -200;
#X msg 72 321 -50;
#X msg 109 321 50;
#X connect 1 0 0 0;
#X connect 3 0 2 0;
#X connect 4 0 2 0;
#X connect 5 0 6 0;
#X connect 6 0 2 0;
#X connect 7 0 9 0;
#X connect 8 0 10 0;
#X connect 9 0 2 0;
#X connect 10 0 2 0;
#X connect 11 0 2 0;
#X connect 12 0 4 0;
#X connect 15 0 14 2;
#X connect 16 0 17 0;
#X connect 17 0 18 0;
#X connect 18 0 67 0;
#X connect 18 1 68 0;
#X connect 18 2 23 0;
#X connect 18 3 27 0;
#X connect 18 4 31 0;
#X connect 18 5 35 0;
#X connect 18 6 39 0;
#X connect 18 7 43 0;
#X connect 18 8 47 0;
#X connect 18 9 51 0;
#X connect 18 10 55 0;
#X connect 18 11 59 0;
#X connect 18 12 63 0;
#X connect 19 0 14 0;
#X connect 19 0 82 0;
#X connect 19 0 98 0;
#X connect 21 0 20 1;
#X connect 22 0 20 2;
#X connect 23 0 70 0;
#X connect 23 0 25 0;
#X connect 23 0 26 0;
#X connect 25 0 24 1;
#X connect 26 0 24 2;
#X connect 27 0 71 0;
#X connect 27 0 29 0;
#X connect 27 0 30 0;
#X connect 29 0 28 1;
#X connect 30 0 28 2;
#X connect 31 0 72 0;
#X connect 31 0 33 0;
#X connect 31 0 34 0;
#X connect 33 0 32 1;
#X connect 34 0 32 2;
#X connect 35 0 73 0;
#X connect 35 0 37 0;
#X connect 35 0 38 0;
#X connect 37 0 36 1;
#X connect 38 0 36 2;
#X connect 39 0 74 0;
#X connect 39 0 41 0;
#X connect 39 0 42 0;
#X connect 41 0 40 1;
#X connect 42 0 40 2;
#X connect 43 0 75 0;
#X connect 43 0 45 0;
#X connect 43 0 46 0;
#X connect 45 0 44 1;
#X connect 46 0 44 2;
#X connect 47 0 76 0;
#X connect 47 0 49 0;
#X connect 47 0 50 0;
#X connect 49 0 48 1;
#X connect 50 0 48 2;
#X connect 51 0 77 0;
#X connect 51 0 53 0;
#X connect 51 0 54 0;
#X connect 53 0 52 1;
#X connect 54 0 52 2;
#X connect 55 0 78 0;
#X connect 55 0 57 0;
#X connect 55 0 58 0;
#X connect 57 0 56 1;
#X connect 58 0 56 2;
#X connect 59 0 79 0;
#X connect 59 0 61 0;
#X connect 59 0 62 0;
#X connect 61 0 60 1;
#X connect 62 0 60 2;
#X connect 63 0 80 0;
#X connect 63 0 65 0;
#X connect 63 0 66 0;
#X connect 65 0 64 1;
#X connect 66 0 64 2;
#X connect 67 0 19 0;
#X connect 67 0 81 0;
#X connect 67 0 15 0;
#X connect 68 0 69 0;
#X connect 68 0 21 0;
#X connect 68 0 22 0;
#X connect 69 0 20 0;
#X connect 69 0 84 0;
#X connect 69 0 99 0;
#X connect 70 0 24 0;
#X connect 70 0 83 0;
#X connect 70 0 101 0;
#X connect 71 0 28 0;
#X connect 71 0 85 0;
#X connect 71 0 96 0;
#X connect 72 0 32 0;
#X connect 72 0 86 0;
#X connect 72 0 87 0;
#X connect 72 0 102 0;
#X connect 73 0 36 0;
#X connect 73 0 87 0;
#X connect 73 0 86 0;
#X connect 73 0 100 0;
#X connect 74 0 40 0;
#X connect 74 0 88 0;
#X connect 74 0 97 0;
#X connect 75 0 44 0;
#X connect 75 0 89 0;
#X connect 75 0 98 0;
#X connect 76 0 48 0;
#X connect 76 0 90 0;
#X connect 76 0 92 0;
#X connect 76 0 99 0;
#X connect 77 0 52 0;
#X connect 77 0 91 0;
#X connect 77 0 92 0;
#X connect 77 0 101 0;
#X connect 78 0 56 0;
#X connect 78 0 93 0;
#X connect 78 0 96 0;
#X connect 79 0 60 0;
#X connect 79 0 94 0;
#X connect 79 0 100 0;
#X connect 80 0 64 0;
#X connect 80 0 95 0;
#X connect 80 0 97 0;
#X connect 81 0 14 1;
#X connect 82 0 5 0;
#X connect 83 0 5 0;
#X connect 84 0 5 0;
#X connect 85 0 5 0;
#X connect 86 0 5 0;
#X connect 87 0 7 0;
#X connect 88 0 7 0;
#X connect 89 0 7 0;
#X connect 90 0 7 0;
#X connect 91 0 7 0;
#X connect 92 0 8 0;
#X connect 93 0 8 0;
#X connect 94 0 8 0;
#X connect 95 0 8 0;
#X connect 96 0 12 0;
#X connect 97 0 12 0;
#X connect 98 0 12 0;
#X connect 99 0 12 0;
#X connect 100 0 12 0;
#X connect 101 0 12 0;
#X connect 102 0 12 0;
